<svg xmlns="http://www.w3.org/2000/svg" viewBox="0 0 71.6 139.06"><defs></defs><title>Asset 5</title><g id="Layer_2" data-name="Layer 2"><g id="Layer_1-2" data-name="Layer 1"><path class="cls-1" d="M66.82,13.51a6.43,6.43,0,1,0-3.29,0V28.08L52.69,37.64v25L45.07,72.9,45,104.74l4.44,5.19v24.59a21.48,21.48,0,0,1-5,1.13v-24.3l-4.43-5.19.12-31.94,7.61-10V34.31l9.21-8.12v-11l-6-5.5a6.43,6.43,0,1,0-7.19,3v8.83l-10.21,9V42.81l3.76,3.43V60.67l-4.86,6.44V49.3l-5.29-4.54V30.7l5.23-4.61V18.52a6.43,6.43,0,1,0-3.28,0v6.09l-5.23,4.61V46.27l5.29,4.54V92.44l-7.68,10.21v11.82l5.47,6.4V131.6C21,128,17.28,122.31,17.28,116V100.1l7.54-10V53l-6.29-5.39V26.89a6.44,6.44,0,1,0-3.28,0V67.38l6.29,5.38V89l-4.26,5.64v-18l-9.21-7.9V40.25a6.43,6.43,0,1,0-3.29,0v30L14,78.1V116c0,6.24,3,12.09,8.33,16.46A31.23,31.23,0,0,0,42,139.06c13.41,0,24.32-10.37,24.32-23.11,0-1.7-.16-15.28-4.32-18.17V76.12l8.05-10.69V49.82l-3.27-3.27ZM27.5,12.31a3.15,3.15,0,1,1,3.15,3.15A3.15,3.15,0,0,1,27.5,12.31ZM13.79,20.67a3.14,3.14,0,1,1,3.14,3.14A3.15,3.15,0,0,1,13.79,20.67Zm4.74,45.19V51.93l3,2.58V68.44ZM3.28,34a3.15,3.15,0,1,1,3.14,3.14A3.15,3.15,0,0,1,3.28,34ZM42.16,6.42A3.14,3.14,0,1,1,45.3,9.57,3.15,3.15,0,0,1,42.16,6.42ZM34.3,134.78a28,28,0,0,1-4.16-1.45V119.66l-5.47-6.4v-9.52l4.4-5.84v12.48l5.23,6.11Zm6.78,1a28.63,28.63,0,0,1-3.5-.31V115.28l-5.23-6.11V72.56l8.14-10.8v-17l-3.75-3.43V31.94l10.2-9V12.63A6.26,6.26,0,0,0,48.52,12l5.06,4.63v8.1l-9.2,8.12V63.12l-7.61,10.1-.13,34.14,4.44,5.2ZM62,7.3a3.14,3.14,0,1,1,3.14,3.14A3.15,3.15,0,0,1,62,7.3ZM56.62,130.23a20.91,20.91,0,0,1-3.94,2.82V108.72l-4.44-5.19L48.35,74,56,63.78V39.13l7.56-6.67V48.19l-3.78,4.29V63.85l-7.47,9.92-.1,28.56,4.44,5.19ZM66.8,64.33,58.75,75V99.11l1.5,1.49,0,.05a11.21,11.21,0,0,1,1.76,4.51,52,52,0,0,1,1,10.79,18.84,18.84,0,0,1-3.18,10.47V106.31l-4.44-5.19.1-26.25L63,65V53.72l3.08-3.24.69.7Z"/></g></g></svg>