<svg xmlns="http://www.w3.org/2000/svg" viewBox="0 0 640.46 139.06"><defs></defs><title>Asset 4</title><g id="Layer_2" data-name="Layer 2"><g id="Layer_1-2" data-name="Layer 1"><path class="cls-1" d="M114.86,109.58V21.63h60.47v10.3H126.64v77.65Zm20.36-40.11V59.16h34V69.47Z"/><path class="cls-1" d="M227.71,89.83h10.92c-1,9.94-6,21.34-28.09,21.34-21.47,0-29.57-10.79-29.57-32.5C181,56.71,189.19,44,211,44c21,0,28.09,11.9,28.09,36.93H200.84V71.8h27.24c-.86-11.41-3.68-18.52-17.18-18.52s-18.64,5-18.64,24.9c0,17.66,4.54,23.67,19.13,23.67C221.21,101.85,226.48,99.28,227.71,89.83Z"/><path class="cls-1" d="M299.47,89.83h10.91c-1,9.94-6,21.34-28.09,21.34-21.46,0-29.56-10.79-29.56-32.5,0-22,8.22-34.72,30-34.72,21,0,28.09,11.9,28.09,36.93H272.6V71.8h27.23c-.86-11.41-3.68-18.52-17.17-18.52S264,58.31,264,78.18c0,17.66,4.54,23.67,19.14,23.67C293,101.85,298.24,99.28,299.47,89.83Z"/><path class="cls-1" d="M340.56,96.45c0,4.17,1.59,4.67,6.25,4.67a34.52,34.52,0,0,0,4.17-.5v9.08a43.22,43.22,0,0,1-8.58.86c-10.19,0-12.64-3.8-12.64-14.23V54.75H321.3V45.67h8.46V28.5h10.8V45.67H351v9.08H340.56Z"/><path class="cls-1" d="M366.19,109.58V21.63H403c19.26,0,26.37,7.73,26.37,23.92,0,7-1.34,12.27-9.56,16.93,8.09,2.69,13.86,8.09,13.86,21,0,17.17-9.2,26.13-31,26.13ZM378,99.28h25.88c12.51,0,17.66-3.19,17.66-15.09,0-13.5-6.62-15.21-19.38-15.21H386.55V58.67h11.78c12.51,0,18.89-.73,18.89-13.61,0-12.27-5.76-13.13-19.38-13.13H378Z"/><path class="cls-1" d="M491.55,64.44C491.55,57,489.34,53,477,53c-12.88,0-14.11,4.17-15.58,11.65h-10.8C451.81,48.86,460,44,477.45,44c14.22,0,24.9,3.32,24.9,17.79v47.84h-10.8v-7c-5.27,5-11.41,8.58-22.45,8.58-13.73,0-20.85-5.52-20.85-17.29,0-8.47,3.68-18.65,19.75-20.73l15-2V80l-9.69,1.35c-9.93,1.35-13.73,3.92-13.73,11.16,0,7.48,4.17,9.57,12.39,9.57,12.26,0,19.62-4.66,19.62-16.56Z"/><path class="cls-1" d="M561.47,66.28c-1.47-10.43-5.15-13-14.23-13-13.49,0-17.42,5.76-17.42,24.9,0,16.93,2.82,23.79,16.68,23.79,9.08,0,13.25-2.82,15-14.84h10.79c-1.59,13.74-7.36,24.17-26.62,24.17-19.87,0-27.1-11-27.1-33.25,0-21.22,6.5-34.1,28.7-34.1,16.56,0,23.43,7.24,25,22.33Z"/><path class="cls-1" d="M597.9,109.58H587.1V21.63h10.8Zm26.86-63.91h13.86l-23.3,30.79,25.14,33.12H626.6l-25-33.12Z"/><path class="cls-1" d="M66.82,13.51a6.43,6.43,0,1,0-3.29,0V28.08L52.69,37.64v25L45.07,72.9,45,104.74l4.44,5.19v24.59a21.48,21.48,0,0,1-5,1.13v-24.3l-4.43-5.19.12-31.94,7.61-10V34.31l9.21-8.12v-11l-6-5.5a6.43,6.43,0,1,0-7.19,3v8.83l-10.21,9V42.81l3.76,3.43V60.67l-4.86,6.44V49.3l-5.29-4.54V30.7l5.23-4.61V18.52a6.43,6.43,0,1,0-3.28,0v6.09l-5.23,4.61V46.27l5.29,4.54V92.44l-7.68,10.21v11.82l5.47,6.4V131.6C21,128,17.28,122.31,17.28,116V100.1l7.54-10V53l-6.29-5.39V26.89a6.44,6.44,0,1,0-3.28,0V67.38l6.29,5.38V89l-4.26,5.64v-18l-9.21-7.9V40.25a6.43,6.43,0,1,0-3.29,0v30L14,78.1V116c0,6.24,3,12.09,8.33,16.46A31.23,31.23,0,0,0,42,139.06c13.41,0,24.32-10.37,24.32-23.11,0-1.7-.16-15.28-4.32-18.17V76.12l8.05-10.69V49.82l-3.27-3.27ZM27.5,12.31a3.15,3.15,0,1,1,3.15,3.15A3.15,3.15,0,0,1,27.5,12.31ZM13.79,20.67a3.14,3.14,0,1,1,3.14,3.14A3.15,3.15,0,0,1,13.79,20.67Zm4.74,45.19V51.93l3,2.58V68.44ZM3.28,34a3.15,3.15,0,1,1,3.14,3.14A3.15,3.15,0,0,1,3.28,34ZM42.16,6.42A3.14,3.14,0,1,1,45.3,9.57,3.15,3.15,0,0,1,42.16,6.42ZM34.3,134.78a28,28,0,0,1-4.16-1.45V119.66l-5.47-6.4v-9.52l4.4-5.84v12.48l5.23,6.11Zm6.78,1a28.63,28.63,0,0,1-3.5-.31V115.28l-5.23-6.11V72.56l8.14-10.8v-17l-3.75-3.43V31.94l10.2-9V12.63A6.26,6.26,0,0,0,48.52,12l5.06,4.63v8.1l-9.2,8.12V63.12l-7.61,10.1-.13,34.14,4.44,5.2ZM62,7.3a3.14,3.14,0,1,1,3.14,3.14A3.15,3.15,0,0,1,62,7.3ZM56.62,130.23a20.91,20.91,0,0,1-3.94,2.82V108.72l-4.44-5.19L48.35,74,56,63.78V39.13l7.56-6.67V48.19l-3.78,4.29V63.85l-7.47,9.92-.1,28.56,4.44,5.19ZM66.8,64.33,58.75,75V99.11l1.5,1.49,0,.05a11.21,11.21,0,0,1,1.76,4.51,52,52,0,0,1,1,10.79,18.84,18.84,0,0,1-3.18,10.47V106.31l-4.44-5.19.1-26.25L63,65V53.72l3.08-3.24.69.7Z"/></g></g></svg>